<svg width="15" height="12" viewBox="0 0 15 12" fill="none" xmlns="http://www.w3.org/2000/svg">
<path opacity="0.49628" fill-rule="evenodd" clip-rule="evenodd" d="M0.740655 0H14.0726C14.4923 0 14.8133 0.369864 14.8133 0.853559V6.54403C14.8133 7.02773 14.4923 7.39759 14.0726 7.39759H0.740655C0.320941 7.39759 0 7.02773 0 6.54403V0.853559C0 0.369864 0.320941 0 0.740655 0ZM14.0726 6.82854C14.2208 6.82854 14.3195 6.71475 14.3195 6.54403H14.3195V0.853559C14.3195 0.682847 14.2207 0.569051 14.0726 0.569051H0.740655C0.617232 0.569051 0.49378 0.682847 0.49378 0.853559V6.54403C0.49378 6.71475 0.592524 6.82854 0.740655 6.82854H14.0726Z" fill="#222222"/>
<path opacity="0.49628" d="M6.41912 2.56072H8.39423C8.54237 2.56072 8.64111 2.44692 8.64111 2.27621C8.64111 2.1055 8.54237 1.9917 8.39423 1.9917H6.41912C6.27099 1.9917 6.17224 2.1055 6.17224 2.27621C6.17224 2.44692 6.27099 2.56072 6.41912 2.56072Z" fill="#222222"/>
<path opacity="0.49628" d="M13.5788 5.69049H1.23442C1.08629 5.69049 0.987549 5.80429 0.987549 5.975C0.987549 6.14571 1.08629 6.25951 1.23442 6.25951H13.5788C13.727 6.25951 13.8257 6.14571 13.8257 5.975C13.8257 5.80429 13.727 5.69049 13.5788 5.69049Z" fill="#222222"/>
<path opacity="0.49628" d="M13.5788 4.55237H1.23442C1.08629 4.55237 0.987549 4.66616 0.987549 4.83688C0.987549 5.00759 1.08629 5.12139 1.23442 5.12139H13.5788C13.727 5.12139 13.8257 5.00759 13.8257 4.83688C13.8257 4.66616 13.727 4.55237 13.5788 4.55237Z" fill="#222222"/>
<path opacity="0.49628" d="M7.53012 9.41774C7.28325 9.27547 7.1598 9.10475 7.1598 8.96248C7.1598 8.82021 7.30793 8.6495 7.50544 8.47879C7.6289 8.42187 7.65357 8.25116 7.60419 8.10892C7.5548 7.96665 7.40667 7.90977 7.28325 7.99513C6.88821 8.25119 6.66602 8.59262 6.66602 8.96252C6.66602 9.33238 6.88821 9.67384 7.28325 9.95835C7.53012 10.1006 7.65357 10.2713 7.65357 10.4136C7.65357 10.5559 7.50544 10.7266 7.28325 10.8688C7.1598 10.9257 7.11044 11.0964 7.1845 11.2387C7.23389 11.324 7.30796 11.381 7.4067 11.381C7.45609 11.381 7.48077 11.381 7.53015 11.3525C7.92519 11.0964 8.14738 10.755 8.14738 10.3851C8.14738 10.0152 7.92516 9.64536 7.53012 9.41774Z" fill="#222222"/>
<path opacity="0.49628" d="M4.8143 9.98677C4.56743 9.8445 4.44397 9.67378 4.44397 9.53151C4.44397 9.38924 4.59211 9.21853 4.78962 9.04782C4.91308 8.9909 4.96243 8.82019 4.88837 8.67795C4.83898 8.53568 4.69085 8.4788 4.56743 8.56416C4.17239 8.82022 3.9502 9.16165 3.9502 9.53155C3.9502 9.90141 4.17239 10.2429 4.56743 10.5274C4.8143 10.6696 4.93775 10.8404 4.93775 10.9826C4.93775 11.1249 4.78962 11.2956 4.56743 11.4379C4.44397 11.4948 4.39462 11.6655 4.46868 11.8078C4.51807 11.8931 4.59214 11.95 4.69088 11.95C4.74027 11.95 4.76494 11.95 4.81433 11.9216C5.20937 11.6655 5.43156 11.3241 5.43156 10.9542C5.43156 10.5843 5.20934 10.2144 4.8143 9.98677Z" fill="#222222"/>
<path opacity="0.49628" d="M10.2458 9.98677C9.99895 9.8445 9.87549 9.67378 9.87549 9.53151C9.87549 9.38924 10.0236 9.21853 10.2211 9.04782C10.3446 8.9909 10.3693 8.82019 10.3199 8.67795C10.2705 8.53568 10.1224 8.4788 9.99895 8.56416C9.60391 8.82022 9.38171 9.16165 9.38171 9.53155C9.38171 9.90141 9.60391 10.2429 9.99895 10.5274C10.2458 10.6696 10.3693 10.8404 10.3693 10.9826C10.3693 11.1249 10.2211 11.2956 9.99895 11.4379C9.87549 11.4948 9.82614 11.6655 9.9002 11.8078C9.94959 11.8931 10.0237 11.95 10.1224 11.95C10.1718 11.95 10.1965 11.95 10.2459 11.9216C10.6409 11.6655 10.8631 11.3241 10.8631 10.9542C10.8631 10.5843 10.6408 10.2144 10.2458 9.98677Z" fill="#222222"/>
</svg>
