<svg width="11" height="12" viewBox="0 0 11 12" fill="none" xmlns="http://www.w3.org/2000/svg">
<path opacity="0.499209" fill-rule="evenodd" clip-rule="evenodd" d="M4.08977 6.52908H10.1088C10.2766 6.52908 10.4127 6.68648 10.4127 6.88064V8.04157C10.4127 8.20294 10.3187 8.3389 10.1906 8.38024V9.39291C10.1906 10.2109 9.74234 10.9099 9.11506 11.1789L9.27245 11.4549C9.36488 11.6169 9.32622 11.835 9.18612 11.9419C9.1346 11.9812 9.07648 12 9.01904 12C8.92035 12 8.82352 11.9445 8.76509 11.842L8.4542 11.2969H1.9585L1.64761 11.842C1.5892 11.9445 1.49237 12 1.39365 12C1.3362 12 1.27814 11.9813 1.22658 11.9419C1.08648 11.835 1.0478 11.6169 1.14025 11.4549L1.29764 11.1789C0.670358 10.9099 0.222063 10.2109 0.222063 9.39291V8.38024C0.0939583 8.3389 0 8.20294 0 8.04157V6.88064C0 6.68648 0.136077 6.52908 0.303921 6.52908H0.627284V1.32853C0.627284 0.595969 1.14249 0 1.77577 0C2.26706 0 2.70382 0.361336 2.86262 0.899156L2.97937 1.29633C3.60532 1.24704 4.20024 1.70536 4.38279 2.43007L4.47309 2.78857C4.49564 2.87808 4.48653 2.97431 4.44775 3.05604C4.40896 3.13779 4.3437 3.19837 4.26632 3.22446L2.22815 3.91141C2.07231 3.9679 1.89369 3.8543 1.85135 3.67221L1.76107 3.31371C1.5809 2.59842 1.86009 1.85252 2.39702 1.49925L2.28728 1.12596C2.21266 0.873211 2.00703 0.703125 1.77577 0.703125C1.47765 0.703125 1.23512 0.983672 1.23512 1.32853V6.52908H1.84358C1.86349 6.35719 1.99043 6.22453 2.14447 6.22453H3.78888C3.94291 6.22453 4.06986 6.35721 4.08977 6.52908ZM3.8045 2.64773L3.79921 2.62676C3.70291 2.2444 3.39975 1.99552 3.0716 1.99552C3.00162 1.99552 2.9305 2.00684 2.86003 2.0306C2.459 2.16577 2.22779 2.65312 2.34465 3.11702L2.34993 3.138L3.8045 2.64773ZM2.44839 6.92766H3.48496V9.2003H2.44839V6.92766ZM9.58279 8.29844C9.58279 8.09381 9.67057 7.91245 9.80486 7.80211H9.80488V7.2322H4.09282V9.55186C4.09282 9.74602 3.95674 9.90342 3.7889 9.90342H2.14449C1.97664 9.90342 1.84057 9.74602 1.84057 9.55186V7.2322H0.607841V7.80211C0.742128 7.91245 0.829904 8.09384 0.829904 8.29844V9.39291C0.829904 10.0551 1.29561 10.5938 1.86802 10.5938H8.54468C9.11709 10.5938 9.58279 10.0551 9.58279 9.39291V8.29844Z" fill="#222222"/>
</svg>
