<svg width="14" height="11" viewBox="0 0 14 11" fill="none" xmlns="http://www.w3.org/2000/svg">
<path opacity="0.5" fill-rule="evenodd" clip-rule="evenodd" d="M0.557823 10.6786C0.557823 10.8561 0.432894 11 0.278912 11C0.124929 11 0 10.8561 0 10.6786V0.321429C0 0.143973 0.124929 0 0.278912 0C0.432894 0 0.557823 0.143973 0.557823 0.321429V6.06161H13.3258V4.60714C13.3258 4.42969 13.4507 4.28571 13.6047 4.28571C13.7587 4.28571 13.8836 4.42969 13.8836 4.60714V10.6786C13.8836 10.8561 13.7587 11 13.6047 11C13.4507 11 13.3258 10.8561 13.3258 10.6786V8.49018H0.557823V10.6786ZM13.3258 7.84732V6.70446H0.557823V7.84732H13.3258Z" fill="#222222"/>
<path opacity="0.5" fill-rule="evenodd" clip-rule="evenodd" d="M1.38525 3.88306C1.38525 2.91654 2.0651 2.13306 2.90377 2.13306C3.74206 2.13417 4.42132 2.9171 4.42229 3.88306C4.42229 4.84957 3.74244 5.63306 2.90377 5.63306C2.0651 5.63306 1.38525 4.84957 1.38525 3.88306ZM1.94308 3.88306C1.94308 4.49455 2.37316 4.9902 2.90377 4.9902C3.43409 4.98953 3.86389 4.49433 3.86447 3.88306C3.86447 3.27167 3.43429 2.77591 2.90377 2.77591C2.37316 2.77591 1.94308 3.27167 1.94308 3.88306Z" fill="#222222"/>
<path opacity="0.5" fill-rule="evenodd" clip-rule="evenodd" d="M12.323 5.63302H5.19529C5.04131 5.63302 4.91638 5.48927 4.91638 5.31159V2.09731C4.91638 1.91985 5.04131 1.77588 5.19529 1.77588H9.53392C11.2276 1.77811 12.6002 3.35992 12.6019 5.31159C12.6019 5.48927 12.4772 5.63302 12.323 5.63302ZM9.53392 2.41874H5.4742V4.99016H12.0286C11.8851 3.52699 10.8118 2.42074 9.53392 2.41874Z" fill="#222222"/>
</svg>
