<svg width="13" height="12" viewBox="0 0 13 12" fill="none" xmlns="http://www.w3.org/2000/svg">
<path opacity="0.504999" fill-rule="evenodd" clip-rule="evenodd" d="M11.454 6.24V7.2H12.287C12.402 7.2 12.4952 7.30746 12.4952 7.44V8.4C12.4952 8.53254 12.402 8.64 12.287 8.64H11.454V11.76C11.454 11.8925 11.3607 12 11.2457 12H10.4127C10.2977 12 10.2044 11.8925 10.2044 11.76V8.64H2.29079V11.76C2.29079 11.8925 2.19755 12 2.08254 12H1.24952C1.13452 12 1.04127 11.8925 1.04127 11.76V8.64H0.208254C0.0932457 8.64 0 8.53254 0 8.4V7.44C0 7.30746 0.0932457 7.2 0.208254 7.2H1.04127V6.24H0.624762C0.509754 6.24 0.416508 6.13254 0.416508 6V4.08C0.416508 3.94746 0.509754 3.84 0.624762 3.84H1.04127V3.36H0.624762C0.509754 3.36 0.416508 3.25254 0.416508 3.12V1.2C0.416508 1.06746 0.509754 0.96 0.624762 0.96H1.04127V0.24C1.04127 0.10746 1.13452 0 1.24952 0H2.08254C2.19755 0 2.29079 0.10746 2.29079 0.24V0.96H10.2044V0.24C10.2044 0.10746 10.2977 0 10.4127 0H11.2457C11.3607 0 11.454 0.10746 11.454 0.24V0.96H11.8705C11.9855 0.96 12.0787 1.06746 12.0787 1.2V3.12C12.0787 3.25254 11.9855 3.36 11.8705 3.36H11.454V3.84H11.8705C11.9855 3.84 12.0787 3.94746 12.0787 4.08V6C12.0787 6.13254 11.9855 6.24 11.8705 6.24H11.454ZM11.0375 0.48H10.621V0.96H11.0375V0.48ZM1.45778 0.48H1.87429V0.96H1.45778V0.48ZM0.833016 1.44V2.88H11.6622V1.44H0.833016ZM11.0375 3.36V3.84H10.621V3.36H11.0375ZM10.2044 3.84V3.36H2.29079V3.84H10.2044ZM1.87429 3.36V3.84H1.45778V3.36H1.87429ZM0.833016 4.32V5.76H11.6622V4.32H0.833016ZM11.0375 6.24V7.2H10.621V6.24H11.0375ZM10.2044 7.2V6.24H2.29079V7.2H10.2044ZM1.87429 6.24V7.2H1.45778V6.24H1.87429ZM1.45778 11.52H1.87429V8.64H1.45778V11.52ZM11.0375 11.52H10.621V8.64H11.0375V11.52ZM0.416508 8.16H12.0787V7.68H0.416508V8.16Z" fill="#222222"/>
</svg>
