<svg width="32" height="26" viewBox="0 0 32 26" fill="none" xmlns="http://www.w3.org/2000/svg">
<path fill-rule="evenodd" clip-rule="evenodd" d="M31.2381 2.03175H8.22857V0.761905C8.22857 0.34113 7.88754 0 7.46667 0H3.80952C3.38865 0 3.04762 0.34113 3.04762 0.761905V2.03175H0.761905C0.341029 2.03175 0 2.37288 0 2.79365V24.4317C0 24.8525 0.341029 25.1937 0.761905 25.1937H31.2381C31.659 25.1937 32 24.8525 32 24.4317V2.79365C32 2.37288 31.659 2.03175 31.2381 2.03175ZM4.57143 1.52381H6.70476V2.03175H4.57143V1.52381ZM1.52381 23.6698H30.4762V3.55556H1.52381V23.6698Z" fill="#B2D235"/>
<path fill-rule="evenodd" clip-rule="evenodd" d="M22.654 13.1556C22.654 16.8246 19.6691 19.8095 16 19.8095C12.331 19.8095 9.34607 16.8246 9.34607 13.1556C9.34607 9.48653 12.331 6.50159 16 6.50159C19.6691 6.50159 22.654 9.48653 22.654 13.1556ZM21.1302 13.1556C21.1302 10.3268 18.8288 8.0254 16 8.0254C13.1712 8.0254 10.8699 10.3268 10.8699 13.1556C10.8699 15.9844 13.1712 18.2857 16 18.2857C18.8288 18.2857 21.1302 15.9844 21.1302 13.1556Z" fill="#B2D235"/>
<path fill-rule="evenodd" clip-rule="evenodd" d="M20.1143 13.1555C20.1143 15.4241 18.2687 17.2698 16 17.2698C13.7314 17.2698 11.8857 15.4241 11.8857 13.1555C11.8857 10.887 13.7314 9.04126 16 9.04126C18.2687 9.04126 20.1143 10.887 20.1143 13.1555ZM18.5905 13.1555C18.5905 11.7271 17.4284 10.5651 16 10.5651C14.5716 10.5651 13.4096 11.7271 13.4096 13.1555C13.4096 14.584 14.5716 15.746 16 15.746C17.4284 15.746 18.5905 14.584 18.5905 13.1555Z" fill="#B2D235"/>
<path fill-rule="evenodd" clip-rule="evenodd" d="M28.1904 9.85395H24.9396C24.5188 9.85395 24.1777 9.51282 24.1777 9.09204V5.84125C24.1777 5.42048 24.5188 5.07935 24.9396 5.07935H28.1904C28.6113 5.07935 28.9523 5.42048 28.9523 5.84125V9.09204C28.9523 9.51282 28.6113 9.85395 28.1904 9.85395ZM27.4285 6.60316H25.7015V8.33014H27.4285V6.60316Z" fill="#B2D235"/>
<path d="M3.91107 20.0127H6.85711C7.27798 20.0127 7.61901 19.6716 7.61901 19.2508C7.61901 18.83 7.27798 18.4889 6.85711 18.4889H3.91107C3.4902 18.4889 3.14917 18.83 3.14917 19.2508C3.14917 19.6716 3.4902 20.0127 3.91107 20.0127Z" fill="#B2D235"/>
<path d="M3.91107 22.146H6.85711C7.27798 22.146 7.61901 21.8049 7.61901 21.3841C7.61901 20.9633 7.27798 20.6222 6.85711 20.6222H3.91107C3.4902 20.6222 3.14917 20.9633 3.14917 21.3841C3.14917 21.8049 3.4902 22.146 3.91107 22.146Z" fill="#B2D235"/>
</svg>
