<svg width="14" height="12" viewBox="0 0 14 12" fill="none" xmlns="http://www.w3.org/2000/svg">
<path fill-rule="evenodd" clip-rule="evenodd" d="M9.46957 0.5C8.18334 0.5 7.07397 1.26765 6.57382 2.36821C6.07416 1.26765 4.96454 0.5 3.67892 0.5C1.92571 0.5 0.5 1.92586 0.5 3.67819C0.5 4.04784 0.56348 4.40234 0.680318 4.73277C0.81325 5.10888 1.01475 5.45242 1.27021 5.74871C1.37913 5.87547 1.49746 5.99321 1.6252 6.10135L6.47369 10.9161C6.50353 10.9459 6.54239 10.9608 6.58163 10.9608C6.62122 10.9608 6.66035 10.9459 6.69041 10.9161L11.719 5.92149C12.0445 5.59429 12.3001 5.19796 12.4601 4.75561C12.5817 4.4191 12.6481 4.0562 12.6481 3.67819C12.6481 1.92586 11.2221 0.5 9.46957 0.5Z" stroke="#979797"/>
</svg>
