<svg width="18" height="18" viewBox="0 0 18 18" fill="none" xmlns="http://www.w3.org/2000/svg">
<path fill-rule="evenodd" clip-rule="evenodd" d="M13.11 3.06104C12.555 3.06104 12.105 3.51104 12.105 4.06604C12.105 4.62104 12.555 5.07104 13.11 5.07104C13.665 5.07104 14.115 4.62104 14.115 4.06604C14.115 3.51104 13.665 3.06104 13.11 3.06104Z" fill="white"/>
<path fill-rule="evenodd" clip-rule="evenodd" d="M8.6418 11.2763C7.1508 11.2763 5.9378 10.0633 5.9378 8.57234C5.9378 7.08034 7.1508 5.86734 8.6418 5.86734C10.1328 5.86734 11.3458 7.08034 11.3458 8.57234C11.3458 10.0633 10.1328 11.2763 8.6418 11.2763ZM8.6418 4.35034C6.3138 4.35034 4.4198 6.24434 4.4198 8.57234C4.4198 10.9003 6.3138 12.7943 8.6418 12.7943C10.9698 12.7943 12.8638 10.9003 12.8638 8.57234C12.8638 6.24434 10.9698 4.35034 8.6418 4.35034Z" fill="white"/>
<path fill-rule="evenodd" clip-rule="evenodd" d="M5.149 1.613C3.199 1.613 1.612 3.199 1.612 5.149V11.994C1.612 13.944 3.199 15.531 5.149 15.531H11.993C13.944 15.531 15.53 13.944 15.53 11.994V5.149C15.53 3.199 13.944 1.613 11.993 1.613H5.149ZM11.993 17.144H5.149C2.31 17.144 0 14.834 0 11.994V5.149C0 2.31 2.31 0 5.149 0H11.993C14.833 0 17.143 2.31 17.143 5.149V11.994C17.143 14.834 14.833 17.144 11.993 17.144Z" fill="white"/>
</svg>
