<svg width="16" height="11" viewBox="0 0 16 11" fill="none" xmlns="http://www.w3.org/2000/svg">
<path fill-rule="evenodd" clip-rule="evenodd" d="M15.1795 0H0.820531C0.369219 0 0 0.369219 0 0.8205V9.84616C0 10.2974 0.369219 10.6667 0.820531 10.6667H15.1795C15.6307 10.6667 16 10.2975 16 9.84616V0.8205C16 0.369219 15.6308 0 15.1795 0ZM14.8716 0.615344L8.472 5.41541C8.35694 5.50297 8.18031 5.55775 7.99997 5.55694C7.81966 5.55775 7.64306 5.50297 7.52797 5.41541L1.12841 0.615344H14.8716ZM14.9403 10.0398L11.4531 5.73213C11.3462 5.60003 11.3665 5.40613 11.4988 5.29928C11.6307 5.19241 11.8246 5.21272 11.9315 5.34481L15.3845 9.61041V0.999969L8.84094 5.90766C8.59481 6.09103 8.29531 6.17166 7.99994 6.17228C7.70416 6.17147 7.40491 6.09084 7.15894 5.90766L0.615375 0.999969V9.61047L4.0685 5.34481C4.17537 5.21269 4.36903 5.19244 4.50112 5.29928C4.63347 5.40637 4.65372 5.60003 4.54688 5.73213L1.05969 10.0398C1.05774 10.0422 1.05555 10.0443 1.05335 10.0463C1.05159 10.0479 1.04983 10.0495 1.04819 10.0513H14.9518C14.9503 10.0498 14.9488 10.0484 14.9472 10.0469C14.9448 10.0447 14.9424 10.0425 14.9403 10.0398Z" fill="#B2D235"/>
</svg>
