<svg width="49" height="58" viewBox="0 0 49 58" fill="none" xmlns="http://www.w3.org/2000/svg">
<mask id="mask0_611_1514" style="mask-type:luminance" maskUnits="userSpaceOnUse" x="0" y="0" width="49" height="58">
<path fill-rule="evenodd" clip-rule="evenodd" d="M0 0H48.2095V57.3126H0V0Z" fill="white"/>
</mask>
<g mask="url(#mask0_611_1514)">
<path fill-rule="evenodd" clip-rule="evenodd" d="M48.21 24.0504C48.21 10.7679 37.4175 -0.000244141 24.105 -0.000244141C10.7912 -0.000244141 0 10.7679 0 24.0504C0 43.2405 24.105 57.3126 24.105 57.3126C24.105 57.3126 48.21 44.0075 48.21 24.0504Z" fill="#ED184B"/>
</g>
<path fill-rule="evenodd" clip-rule="evenodd" d="M41.0565 23.5675C41.0565 14.1782 33.4346 6.56812 24.0335 6.56812C14.6312 6.56812 7.00928 14.1782 7.00928 23.5675C7.00928 32.9568 14.6312 40.5681 24.0335 40.5681C33.4346 40.5681 41.0565 32.9568 41.0565 23.5675Z" fill="white"/>
<path fill-rule="evenodd" clip-rule="evenodd" d="M24.0329 30.4484L30.8397 34.5681L29.0389 26.7993L35.0481 21.5735L27.1265 20.8928L24.0329 13.5681L20.9392 20.8928L13.0176 21.5735L19.0268 26.7993L17.2261 34.5681L24.0329 30.4484Z" fill="#ED184B"/>
</svg>
