<svg width="11" height="11" viewBox="0 0 11 11" fill="none" xmlns="http://www.w3.org/2000/svg">
<path opacity="0.501674" fill-rule="evenodd" clip-rule="evenodd" d="M6.57644 1.91756C6.57644 0.863391 7.44008 0 8.49457 0C9.54906 0 10.4127 0.863391 10.4127 1.91756C10.4127 2.97174 9.54906 3.83513 8.49457 3.83513C7.8968 3.83513 7.3823 3.54094 7.02975 3.10855L3.7442 4.75164C3.75313 4.78702 3.76299 4.82206 3.77285 4.85709C3.80458 4.96985 3.83626 5.08239 3.83626 5.20482C3.83626 5.32725 3.80458 5.43979 3.77285 5.55255C3.76299 5.58757 3.75313 5.62262 3.7442 5.65799L7.02975 7.30109C7.3823 6.8687 7.8968 6.57451 8.49457 6.57451C9.54906 6.57451 10.4127 7.4379 10.4127 8.49207C10.4127 9.54625 9.54906 10.4096 8.49457 10.4096C7.44008 10.4096 6.57644 9.54625 6.57644 8.49207C6.57644 8.36964 6.60811 8.2571 6.63985 8.14434C6.64971 8.10932 6.65957 8.07427 6.66849 8.0389L3.38295 6.39581C3.0304 6.82819 2.5159 7.12238 1.91813 7.12238C0.863643 7.12238 0 6.25899 0 5.20482C0 4.15064 0.863643 3.28725 1.91813 3.28725C2.5159 3.28725 3.0304 3.58145 3.38295 4.01383L6.66849 2.37074C6.65957 2.33537 6.64971 2.30032 6.63985 2.2653C6.60811 2.15253 6.57644 2.04 6.57644 1.91756ZM9.59064 1.91756C9.59064 1.30753 9.10478 0.821814 8.49457 0.821814C7.88436 0.821814 7.3985 1.30753 7.3985 1.91756C7.3985 2.5276 7.88436 3.01332 8.49457 3.01332C9.10478 3.01332 9.59064 2.5276 9.59064 1.91756ZM1.91813 4.10907C2.52834 4.10907 3.0142 4.59479 3.0142 5.20482C3.0142 5.81485 2.52834 6.30057 1.91813 6.30057C1.30791 6.30057 0.822055 5.81485 0.822055 5.20482C0.822055 4.59479 1.30791 4.10907 1.91813 4.10907ZM9.59064 8.49207C9.59064 7.88204 9.10478 7.39632 8.49457 7.39632C7.88436 7.39632 7.3985 7.88204 7.3985 8.49207C7.3985 9.10211 7.88436 9.58782 8.49457 9.58782C9.10478 9.58782 9.59064 9.10211 9.59064 8.49207Z" fill="#222222"/>
</svg>
