<svg width="13" height="12" viewBox="0 0 13 12" fill="none" xmlns="http://www.w3.org/2000/svg">
<path opacity="0.500744" d="M12.3991 3.43588C9.25338 -1.14133 3.24732 -1.14926 0.0961772 3.43588C-0.0564258 3.6579 -0.0239187 3.98049 0.168757 4.15633C0.361432 4.33216 0.641306 4.29473 0.793909 4.07268C3.58364 0.0134301 8.90735 0.00721455 11.7014 4.07268C11.8541 4.2949 12.1339 4.33205 12.3265 4.15633C12.5192 3.98043 12.5517 3.6579 12.3991 3.43588Z" fill="#222222"/>
<path opacity="0.500744" d="M2.13227 5.29042C1.97962 5.51241 2.01203 5.83497 2.20465 6.01087C2.39735 6.18684 2.6772 6.14938 2.82981 5.92745C4.57882 3.38385 7.9131 3.37918 9.66534 5.92745C9.81801 6.14944 10.0979 6.18679 10.2905 6.01087C10.4831 5.83494 10.5155 5.51241 10.3629 5.29042C8.25745 2.22845 4.24091 2.22378 2.13227 5.29042Z" fill="#222222"/>
<path opacity="0.500744" d="M4.16726 7.14484C4.01473 7.36694 4.04729 7.68945 4.24001 7.86526C4.43274 8.04104 4.71261 8.00352 4.86514 7.78142C5.57105 6.75356 6.9229 6.75185 7.63001 7.78142C7.78256 8.00352 8.06238 8.04107 8.25513 7.86526C8.44786 7.68945 8.48039 7.36694 8.32788 7.14484C7.26586 5.59847 5.23102 5.59599 4.16726 7.14484Z" fill="#222222"/>
<ellipse opacity="0.500744" cx="6.24774" cy="10.1625" rx="1.12128" ry="1.2922" stroke="#222222" stroke-width="0.8"/>
</svg>
